<?xml version="1.0" encoding="UTF-8"?>
<!--Generator: Apple Native CoreSVG 326-->
<!DOCTYPE svg
PUBLIC "-//W3C//DTD SVG 1.1//EN"
       "http://www.w3.org/Graphics/SVG/1.1/DTD/svg11.dtd">
<svg version="1.1" xmlns="http://www.w3.org/2000/svg" xmlns:xlink="http://www.w3.org/1999/xlink" viewBox="0 0 20.2832 19.9316">
 <g>
  <rect height="19.9316" opacity="0" width="20.2832" x="0" y="0"/>
  <path d="M9.96094 19.9219C15.459 19.9219 19.9219 15.459 19.9219 9.96094C19.9219 4.46289 15.459 0 9.96094 0C4.46289 0 0 4.46289 0 9.96094C0 15.459 4.46289 19.9219 9.96094 19.9219ZM9.96094 18.2617C5.37109 18.2617 1.66016 14.5508 1.66016 9.96094C1.66016 5.37109 5.37109 1.66016 9.96094 1.66016C14.5508 1.66016 18.2617 5.37109 18.2617 9.96094C18.2617 14.5508 14.5508 18.2617 9.96094 18.2617Z" fill="#32d74b"/>
  <path d="M5.42969 9.96094C5.42969 10.4395 5.76172 10.7617 6.25977 10.7617L9.13086 10.7617L9.13086 13.6426C9.13086 14.1309 9.46289 14.4727 9.94141 14.4727C10.4297 14.4727 10.7715 14.1406 10.7715 13.6426L10.7715 10.7617L13.6523 10.7617C14.1406 10.7617 14.4824 10.4395 14.4824 9.96094C14.4824 9.47266 14.1406 9.13086 13.6523 9.13086L10.7715 9.13086L10.7715 6.25977C10.7715 5.76172 10.4297 5.41992 9.94141 5.41992C9.46289 5.41992 9.13086 5.76172 9.13086 6.25977L9.13086 9.13086L6.25977 9.13086C5.76172 9.13086 5.42969 9.47266 5.42969 9.96094Z" fill="#32d74b"/>
 </g>
</svg>
